PathFileType	4	(X/Y/Z)	Formatted/subject02/trials/walk2/markers.trc
DataRate	CameraRate	NumFrames	NumMarkers	Units	OrigDataRate	OrigDataStartFrame	OrigNumFrames
200.00000000000426	200.00000000000426	4	64	m	200.00000000000426	205	235
Frame#	Time	CLAV			C7			RACR			RASH			RPSH			RLEL			RMEL			RUA1			RUA2			RUA3			RFAsuperior			RFAradius			RFAulna			RASI			RPSI			RCAL			RTOE			RMT5			RTH1			RTH2			RTH3			RTB1			RTB2			RTB3			RLFC			RMFC			RLMAL			RMMAL			RHJC			RKJC			REJC			RAJC			RSJC			LACR			LASH			LPSH			LLEL			LMEL			LUA1			LUA2			LUA3			LFAsuperior			LFAradius			LFAulna			LASI			LPSI			LCAL			LTOE			LMT5			LTH1			LTH2			LTH3			LTB1			LTB2			LTB3			LLFC			LMFC			LLMAL			LMMAL			LHJC			LKJC			LEJC			LAJC			LSJC			
		X1	Y1	Z1	X2	Y2	Z2	X3	Y3	Z3	X4	Y4	Z4	X5	Y5	Z5	X6	Y6	Z6	X7	Y7	Z7	X8	Y8	Z8	X9	Y9	Z9	X10	Y10	Z10	X11	Y11	Z11	X12	Y12	Z12	X13	Y13	Z13	X14	Y14	Z14	X15	Y15	Z15	X16	Y16	Z16	X17	Y17	Z17	X18	Y18	Z18	X19	Y19	Z19	X20	Y20	Z20	X21	Y21	Z21	X22	Y22	Z22	X23	Y23	Z23	X24	Y24	Z24	X25	Y25	Z25	X26	Y26	Z26	X27	Y27	Z27	X28	Y28	Z28	X29	Y29	Z29	X30	Y30	Z30	X31	Y31	Z31	X32	Y32	Z32	X33	Y33	Z33	X34	Y34	Z34	X35	Y35	Z35	X36	Y36	Z36	X37	Y37	Z37	X38	Y38	Z38	X39	Y39	Z39	X40	Y40	Z40	X41	Y41	Z41	X42	Y42	Z42	X43	Y43	Z43	X44	Y44	Z44	X45	Y45	Z45	X46	Y46	Z46	X47	Y47	Z47	X48	Y48	Z48	X49	Y49	Z49	X50	Y50	Z50	X51	Y51	Z51	X52	Y52	Z52	X53	Y53	Z53	X54	Y54	Z54	X55	Y55	Z55	X56	Y56	Z56	X57	Y57	Z57	X58	Y58	Z58	X59	Y59	Z59	X60	Y60	Z60	X61	Y61	Z61	X62	Y62	Z62	X63	Y63	Z63	X64	Y64	Z64	

206	4.105	2.224885243203236	1.473033855954212	-0.4696697514850178	2.105737257084592	1.566756823740941	-0.5122096917242104	2.154435023164528	1.525763287797609	-0.3352866625528131	2.202085741804974	1.472676287697647	-0.3025720869101495	2.104679393016784	1.498697570515198	-0.312182089672511	1.972354910406126	1.198363912497467	-0.2560331408614446	1.968976159033384	1.198229958438062	-0.3302703276290083	2.114477203179707	1.416991977349455	-0.2703802472566532	2.099422528971908	1.32576334897914	-0.2870761274350376	2.025065459276482	1.326055827458603	-0.2708068962569466	2.015778413800024	1.095366396931614	-0.2845139556043413	2.032904643400479	0.9217028812064028	-0.2347050862820226	1.962386816141851	0.9315870386291676	-0.2125073542396722	2.198219374248906	1.063264268199807	-0.3808476850278663	2.015435475459781	1.080330764834192	-0.4703777695891143	2.189615261398085	0.1236390021602735	-0.411507768428003	2.413185849198152	0.06514520280554961	-0.4484575918141686	2.350162308724058	0.04562058160214817	-0.3520672901702151	2.159179777723327	0.8994239078299413	-0.323140250518814	2.253929534738886	0.8268587418390478	-0.3252454191031004	2.241113821911267	0.6925270685763806	-0.3494629408558084	2.36053525961858	0.4184258943696731	-0.4152156250774087	2.334173696785783	0.3565767797294048	-0.3449176948434448	2.328593455892477	0.2563533834225211	-0.4126049226251381	2.341343869624298	0.5916537650601723	-0.3478646398060438	2.349426855414126	0.5890630188373553	-0.4636240657841058	2.270526426493499	0.1215176341446879	-0.3548726410642344	2.276728983554449	0.1221449651516716	-0.4594190235860626	2.129960076459542	0.9519864532998268	-0.4288799725286024	2.352674608119351	0.5881302046779631	-0.4080919441062514	1.972989121552903	1.188567144681811	-0.2914432427432834	2.258364725353633	0.1107621453770711	-0.4150356201967798	2.156455737715147	1.484865957633529	-0.3070738927041777	2.187426107702586	1.518719056619172	-0.6808253894871388	2.239984114869151	1.467753120000535	-0.7000380792362833	2.134785258177907	1.49585610544349	-0.7104168822196337	2.13888171554474	1.155312247601409	-0.8025868500757278	2.100220675825873	1.143598057686542	-0.7375545109090165	2.182322293393867	1.420523103024448	-0.7542810804167701	2.199772523028516	1.348791571673249	-0.7460272773388955	2.111047504449137	1.314577110397318	-0.7585837469342412	2.203178894890748	1.098601770344363	-0.737422526234627	2.344145056568108	0.9661578605799338	-0.7683034080226517	2.296944466748995	0.9317225550907905	-0.8123802923970285	2.201792196113825	1.061495657709087	-0.6431893576664609	2.016303867632318	1.085042191318734	-0.5527721095914999	1.910040239780229	0.05658001615856074	-0.5427328694774778	2.142850617586965	0.0401716578317471	-0.5257490870058119	2.074994469559928	0.01182648249900857	-0.6139493299878083	2.129766843909437	0.8317882639276601	-0.679437317868581	2.160316624123773	0.7038512850673553	-0.6514471866190289	2.069168345058834	0.609466059192487	-0.6322699567108134	2.090362877054073	0.3751628056381239	-0.5617116592426075	2.050035783818219	0.2945366376421139	-0.6161893231584465	2.04323477702801	0.1802886433106077	-0.5507782162931434	2.066426985184788	0.5316992928425871	-0.6266150343837819	2.066956185533995	0.5374269960980751	-0.5106874505633319	1.987738357608758	0.06607248551163508	-0.6041774808921637	2.001158288714273	0.06917589105654715	-0.5003551052699784	2.130789477017871	0.9507058715414091	-0.5895044561744988	2.067304559183346	0.5346941525979301	-0.567152332079002	2.127800046218448	1.144105207052697	-0.7714799883620838	1.979913586135503	0.05656582364056401	-0.5430909201540663	2.194354110779324	1.479942789936417	-0.7045398850303115	
207	4.109999999999999	2.23100344529397	1.472290112410693	-0.4693876810901529	2.11193505265287	1.566069295102621	-0.5120264729343625	2.160518674215846	1.525119432355649	-0.3350619535573806	2.208119996546598	1.472016514230047	-0.3023013335242772	2.110734663799262	1.49809428229385	-0.3119710323464284	1.97756110564384	1.198163907328444	-0.2563926480665116	1.974352553021729	1.198084571748256	-0.3306374640446513	2.120266280738806	1.416441915989261	-0.2702764603039233	2.105020225611628	1.325261909588923	-0.2870640301297283	2.030626955741367	1.325731705993594	-0.2709653367098804	2.02045088580966	1.09491922580094	-0.2848449460882262	2.036347685894476	0.9210949473583603	-0.2351895348169858	1.96581886594125	0.9313851255200327	-0.2132123278409805	2.204162818880129	1.062233046961198	-0.3806746598081883	2.021309254644727	1.079788974348154	-0.4699675400700674	2.208419121882509	0.1173269850920935	-0.4115400434986883	2.433641584406713	0.06535521800768497	-0.4482060978425159	2.371146337847913	0.04419397109118944	-0.3518172316569843	2.164801291385289	0.8982531414564937	-0.32310458454704	2.259253781938589	0.8253121959690872	-0.3255534627072227	2.245847393507531	0.691082197923597	-0.3500137503305155	2.369889123055717	0.4172166508648281	-0.4157812345877337	2.345417660952941	0.3547258673012111	-0.3453675037952993	2.343096706625106	0.2542196516014097	-0.4128252152684729	2.345673953417844	0.5898039128220053	-0.3488274550770052	2.353505402906333	0.5874140559921792	-0.4646084911376752	2.289263711083703	0.1177451337274078	-0.354840820101652	2.295567128838881	0.1183268966024232	-0.4593814334212994	2.135573166871341	0.9511457240745981	-0.428677272209665	2.356645705383327	0.5866025840411033	-0.40906504964831	1.978251967724615	1.188387563792455	-0.2918073345023178	2.277520269772772	0.1064704445987765	-0.4149918345783692	2.162499837421108	1.484232644679536	-0.3068311039375139	2.193678520013487	1.517910356177145	-0.6805811259785592	2.24621446800637	1.466903759297492	-0.699746185419586	2.141038308639247	1.495067748806399	-0.7101894601475092	2.146078395119011	1.154356237279517	-0.8024185469291517	2.107294737278512	1.142560932307715	-0.7374739394537584	2.188810521031276	1.419668698762418	-0.7540388795333028	2.206403301971833	1.347977415935616	-0.7457381328823494	2.117784620032817	1.313562016926779	-0.7584948069577667	2.210594937322396	1.098254448460265	-0.7370225399848017	2.352583567397573	0.9667692505984258	-0.7673103016113909	2.305735560421261	0.9319070878847897	-0.8114277758458747	2.207403581790856	1.060587935285292	-0.6430214480585728	2.022086165035076	1.084539789059858	-0.5523605317546378	1.910176387830613	0.05686813424340138	-0.5425559352852141	2.142990380878356	0.0399256531737755	-0.5261561767225983	2.074856606046371	0.01181849958659328	-0.6142184575025379	2.134271912103249	0.8310755629291573	-0.6792862340003836	2.164020549244781	0.7029285930468154	-0.6513939451626225	2.072281747846306	0.6091346969835234	-0.6321314643737436	2.092202855154702	0.3746982059540277	-0.5617315648104565	2.0513404092149	0.2943226732226729	-0.6161806559899141	2.044030660648069	0.1800783978131593	-0.5508179455540596	2.069038193048584	0.5313850848297221	-0.626506492266137	2.069765152159125	0.5370578445840704	-0.510577278280787	1.987817619244227	0.066195617830905	-0.6041796465209227	2.001436783399859	0.06916995181089125	-0.5003794390945185	2.136198781288051	0.9499440596341273	-0.5893032886285848	2.070006456538052	0.5343559603125625	-0.5670474813251084	2.13495065847059	1.143127106543894	-0.7713361065713673	1.980048449685364	0.05669901058162924	-0.5430844255419668	2.200594308880881	1.47911988974698	-0.7042759558328227	
208	4.115	2.237142346759964	1.471521027185715	-0.4690826451135768	2.118152119182481	1.56535087103987	-0.5118280535897968	2.166613591710021	1.524449150391256	-0.3348189137411953	2.214165869678098	1.471332759768898	-0.3020089467594405	2.116801077789638	1.497462845829415	-0.3117440379144702	1.982833034143733	1.19790952307518	-0.2567188457099024	1.979792160491439	1.19788143298485	-0.330970755463582	2.126080464364907	1.41586039036275	-0.2701505056849665	2.110658724537766	1.324726291965522	-0.2870266520102187	2.036230555401652	1.325361077630314	-0.2710958037376594	2.025217160031823	1.094433251732495	-0.2851443388381976	2.039943402265525	0.9204631510945329	-0.2356388869038138	1.969405720658532	0.9311388473086335	-0.2138750448506646	2.21013459053835	1.061138343466885	-0.3804888922029666	2.027216168495938	1.079215538338526	-0.4695446102033028	2.227159692708379	0.111348641366831	-0.4115919494379607	2.453840317065481	0.06590325253887769	-0.4479407171727462	2.391896900818318	0.04313188715651954	-0.3515625773261383	2.170431653562245	0.8970275523090099	-0.3230750324747733	2.264546003655922	0.8236635571213831	-0.3258794613143545	2.250474480033875	0.6895433651788622	-0.3505674266603777	2.379036246210295	0.4160218035807609	-0.4163501393414842	2.356455642246671	0.3529494177772083	-0.3458233044086895	2.357414113587148	0.2522653501096158	-0.4130485147920119	2.349842345831958	0.587810951358664	-0.3498034776273108	2.357400075845146	0.5856095995925777	-0.465606440005178	2.307846968068997	0.1142881871618184	-0.3548172851053272	2.31427741612315	0.1148290173388819	-0.4593503812865344	2.141204598684824	0.9502564115708061	-0.4284788689505209	2.360426614422242	0.5849184019983431	-0.4100485318111299	1.983581040933009	1.188152442458348	-0.2921376833866902	2.29655193324071	0.1025090740047973	-0.4149575066946321	2.168555332917949	1.483573398583947	-0.3065693502110142	2.199961303920852	1.517071835127509	-0.6803164534908872	2.252478286079078	1.466026509708822	-0.6994303122856306	2.14732431083954	1.49424700265418	-0.7099442107330627	2.153293458755538	1.153370701660817	-0.80221228776083	2.114387429977477	1.141498581321314	-0.7373549284377385	2.195329098916965	1.41878337320717	-0.7537721416083133	2.213061027955688	1.347132220905732	-0.7454211275393392	2.124547940826186	1.312519565501123	-0.7583756905832723	2.218017143550918	1.097865038092805	-0.7365907735203591	2.360979277340802	0.9673038097434024	-0.766290450048565	2.314471628502874	0.9320264164269662	-0.8104379505431614	2.213047804554713	1.059656045523852	-0.642840492577092	2.027903554760668	1.084018078646457	-0.5519353986181922	1.910319629075298	0.05717572430722296	-0.5423643463292565	2.143134157015032	0.0396718828452638	-0.5265730126675647	2.074711516751098	0.01181371879640651	-0.6144903240853585	2.138794450424622	0.8303471162418681	-0.6791414459240281	2.167759743599073	0.7019977096863267	-0.6513556814650125	2.075448284902801	0.6087882030984165	-0.6319926170921621	2.094093612530573	0.3742181764475598	-0.5617542546379125	2.052679447118831	0.294103358377735	-0.6161707237367895	2.044849313688446	0.1798659991889898	-0.5508562109580788	2.071712190264271	0.5310584559037939	-0.6263987680670533	2.072657718582653	0.5366712318761855	-0.510468211050696	1.987898626714337	0.06633007831920423	-0.6041748630027471	2.001726732831354	0.06917078178225738	-0.5003985398758479	2.14162917887827	0.9491578740704651	-0.5891062809587353	2.072784546322334	0.534000968237059	-0.5669427758180441	2.142119442155981	1.142121230948183	-0.7711538145158687	1.980189537284607	0.05684364712902923	-0.5430704512570531	2.206867749318928	1.478267148523871	-0.7039907157372043	
209	4.12	2.243301500698212	1.470726549253789	-0.4687541227569441	2.124387948196147	1.564601693739252	-0.5116132884231983	2.1727192194621	1.523751366477821	-0.3345566883147939	2.220222836202306	1.470623758555105	-0.3016944349067617	2.122878093081152	1.496801970436655	-0.31150046907819	1.988167362421129	1.197600375779762	-0.2570127911603441	1.985291162423064	1.197621006391729	-0.3312712644252851	2.131918718878105	1.415246048517438	-0.2700022084453461	2.116335949271374	1.324155364917143	-0.2869646056042792	2.041874181896234	1.324943359254881	-0.2711984550033313	2.030075074328198	1.093908416027064	-0.2854135297401836	2.043691548270293	0.9198060695518138	-0.2360555264708827	1.973146513296941	0.9308457576116939	-0.2144980877267079	2.216135635901574	1.059985706713329	-0.380291313357665	2.033157143823937	1.078609251457463	-0.4691107370420475	2.245791995870421	0.1057352005449231	-0.4116721844296851	2.473737466017138	0.06680122016474174	-0.4476670389485618	2.412364772640692	0.04244688405224416	-0.3513107907947514	2.176077306293304	0.8957529388232927	-0.3230504204839494	2.269816741324529	0.8219252919823578	-0.3262203394921639	2.255014859126975	0.6879228050455006	-0.3511194775257999	2.387979300784097	0.4148561873561277	-0.4169199617054817	2.367280392226469	0.3512615470438215	-0.3462848367319728	2.371523788385007	0.250507345568348	-0.4132774746451513	2.353874698449945	0.5856943290352659	-0.3507859288237882	2.361138100552352	0.5836689512412456	-0.46661093546195	2.326233149816077	0.1111671151416325	-0.354809245978529	2.332817500497616	0.1116761450271206	-0.4593329206717069	2.146858909999745	0.9493214467362626	-0.4282844511818969	2.364045084582667	0.5830959339591861	-0.4110351874918443	1.988972682094207	1.187861767660024	-0.2924354558089716	2.315415195493517	0.09890308282968119	-0.4149402441997064	2.174621691287202	1.482886941911017	-0.3062880716143673	2.206274071968039	1.516204915633698	-0.6800305188957063	2.258775235328794	1.4651229785581	-0.6990899472844183	2.153642912757948	1.493395447390174	-0.7096804641895608	2.160528946397553	1.152356859902029	-0.8019679909420772	2.121500275513047	1.140412035245718	-0.7371977247088862	2.201878396738553	1.417868638780669	-0.7534803919746315	2.219746344779491	1.346257570611048	-0.7450756481980152	2.131338360029613	1.311450880912951	-0.7582265339376919	2.225447222215474	1.097433861842414	-0.7361268885977169	2.369334278310757	0.9677603068557188	-0.7652432251991361	2.323154594394965	0.9320795249240733	-0.8094108182254588	2.21872705541424	1.058702223939584	-0.6426473376049475	2.033757196410487	1.083474802076541	-0.5514985107890049	1.91047129696923	0.05750640627277149	-0.542159363321675	2.143282158191682	0.0394080006925913	-0.5269967211753656	2.074560367874193	0.01181126722594567	-0.6147630272918025	2.143339378443132	0.8296035946845903	-0.6790021956214054	2.171536268354028	0.7010585405283793	-0.6513307025329749	2.078667827188494	0.6084279484917381	-0.6318532324373106	2.096033374048921	0.3737247569040011	-0.5617790837519574	2.054052534515325	0.2938806155869818	-0.6161591489386004	2.045690740172185	0.1796535316603978	-0.5508925840185083	2.074447314745789	0.5307206919833757	-0.6262915142074623	2.075630029589063	0.5362684484502999	-0.5103600046346839	1.987983132133884	0.06647777745653899	-0.6041630764633802	2.002028740587939	0.06918030858124269	-0.5004122761514669	2.147085976328475	0.94834817580269	-0.5889130716889821	2.075635743328853	0.5336306090224399	-0.5668380091352737	2.149308217809311	1.141088745278509	-0.7709331260097181	1.980338073885981	0.05700153754153831	-0.5430490393458053	2.213174090413689	1.477386161914012	-0.7036835839920239	
